<?xml version="1.0" encoding="utf-8"?><svg viewBox="0 0 240 240" xmlns="http://www.w3.org/2000/svg" xmlns:xlink="http://www.w3.org/1999/xlink"><style>:root>svg{display:none}:root>svg:target{display:block}</style><svg viewBox="0 0 240 240" id="business" xmlns="http://www.w3.org/2000/svg"><path opacity=".34" d="M37.078 223.5c18.924 0 34.266-3.001 34.266-6.703 0-3.702-15.341-6.703-34.266-6.703-18.924 0-34.266 3.001-34.266 6.703 0 3.702 15.342 6.703 34.266 6.703z"/><path d="M40.828 204.703l-.703 11.437h20.437s-8.343-5.578-12.046-7.359l-.422-4.031h-7.266v-.047z"/><path d="M47.156 113.953l1.36 93.844h-8.063s-8.906-36.75-4.547-47.485l-7.781-46.359h19.031z"/><path opacity=".2" d="M47.156 113.953H28.172l7.781 46.359c-1.5 3.703-1.453 10.547-.703 17.907l13.078 15.984-1.172-80.25z"/><path d="M19.266 206.203l-3.14 11.437h22.312s-9.422-5.578-13.172-7.359l.703-4.031h-6.703v-.047z"/><path d="M47.719 112.781l-7.922 47.063-13.36 47.953h-8.015S21 161.765 29.25 156.984l-6.515-44.156h24.984v-.047z"/><path opacity=".2" d="M47.203 116.015l.516-3.234H22.734l.563 3.844 23.953 3.047-.047-3.657z"/><path d="M60.61 80.297s4.968-8.016 12.703-9.844l-3.047 3.656s1.453 3.797-.375 5.719c-1.828 1.922-4.782 2.062-4.782 2.062l-2.062 2.297-2.438-3.89z"/><path d="M40.969 73.734l6.797 13.875 13.312-9 3.328 5.11s-11.578 21.75-16.687 20.156c-5.11-1.594-9.516-13.078-9.516-13.078l2.766-17.063z"/><path opacity=".2" d="M47.719 87.61l-6.797-13.876-2.719 17.063s4.406 11.484 9.516 13.078c.14.047.234.047.375.047l6.14-20.766-6.515 4.453z"/><path d="M46.125 40.969s.797 7.078 1.594 8.812h-2.203s.187 6.797-1.22 7.64c-.983.61-3.843 0-4.5.798-.655.797-1.64 6.468-1.64 6.468l-8.86-.75.892-7.921s-4.97-5.954-3.47-13.266c1.5-7.313 18.095-8.578 19.407-1.781z"/><path opacity=".2" d="M35.063 52.781l-6.985-.375c1.031 2.203 2.156 3.563 2.156 3.563l-.89 7.921 8.86.75s.984-5.672 1.64-6.468c.234-.282.797-.422 1.453-.422-3.422-.938-6.516-4.782-6.234-4.969z"/><path d="M46.406 43.312s-1.875 1.125-5.625-1.36c0 0-2.53 4.548-4.734 3.938 0 0-.094 3.235-.563 3.47-.468.233-1.406-2.767-2.343-2.954-.938-.188-1.922.75-.89 3.563.983 2.812 2.812 2.812 2.812 2.812l-4.875 3.234s-3.844-1.218-4.594-4.406c0 0-4.875-4.734-1.922-8.11 0 0-3.234-2.718 4.313-6.046 0 0 1.78-6.563 5.296-3.563 0 0 6.516-4.875 8.11-.515 0 0 8.39-.703 8.906 3.843.516 4.547-1.5 5.625-1.5 5.625s.469 3.75-1.875 3.938l-.516-3.469zM23.156 73.125s-4.406-1.078-3.656-5.766c.75-4.734 6.938-6.844 19.64-3.89 1.5.328 2.672 2.812 1.688 4.968 0 0 4.078 10.032 5.344 18.235s1.922 16.781 3.328 20.765c1.36 3.985.234 8.438-3.563 8.438H22.782c-4.593 0-5.156-6.375-3.328-13.031 1.781-6.61 4.453-24.938 3.703-29.72z"/><path d="M33.469 70.547c7.219 1.547 2.203 15.89.75 19.968-1.453 4.125-3.047 7.782-.75 10.969 2.297 3.188 6.328 6.75 6.328 6.75l-2.719 5.719s-15.047-1.922-18.656-6.375c-3.562-4.453-1.547-14.39 1.547-21.234 3.094-6.844 8.11-16.922 13.5-15.797z"/><path d="M36.656 114.937c-.187-.093-.234-.281-.187-.468l3.656-7.969c.094-.188.281-.235.469-.188.187.094.234.282.187.469l-3.656 7.969c-.094.187-.281.234-.469.187zM33.234 142.078a2.15 2.15 0 01-2.156 2.156 2.18 2.18 0 01-2.156-2.156 2.15 2.15 0 012.156-2.156c1.219.047 2.156.984 2.156 2.156zM19.828 141.516c-3 0-5.438-2.438-5.438-5.438 0-3 2.438-5.437 5.438-5.437 3 0 5.438 2.437 5.438 5.437 0 3-2.438 5.438-5.438 5.438zm0-8.016a2.57 2.57 0 00-2.578 2.578 2.601 2.601 0 002.578 2.578 2.57 2.57 0 002.578-2.578 2.57 2.57 0 00-2.578-2.578zM176.156 35.156h-1.781v1.828c0 .844-.656 1.5-1.5 1.5a1.48 1.48 0 01-1.5-1.5v-1.828h-1.828a1.48 1.48 0 01-1.5-1.5c0-.843.656-1.5 1.5-1.5h1.828v-1.828c0-.844.656-1.5 1.5-1.5s1.5.656 1.5 1.5v1.828h1.828c.844 0 1.5.657 1.5 1.5-.047.844-.703 1.5-1.547 1.5zM190.875 25.688a2.15 2.15 0 01-2.156 2.156 2.151 2.151 0 01-2.157-2.157c0-1.171.985-2.156 2.157-2.156a2.15 2.15 0 012.156 2.157zM79.922 73.922c-6.469-16.219-3.14-35.39 9.984-48.516 6.328-6.328 14.063-10.406 22.219-12.14l4.828 21.89c-10.172 2.203-17.766 11.25-17.766 22.078 0 2.953.563 5.766 1.594 8.391l-20.86 8.297zM89.906 89.063c-.328-.329-.703-.704-1.031-1.079l16.359-15.328c4.125 4.406 9.985 7.125 16.5 7.125 12.469 0 22.594-10.125 22.594-22.594a22.46 22.46 0 00-12.609-20.25l9.937-20.109a44.479 44.479 0 0111.906 8.531c17.579 17.578 17.579 46.125 0 63.703-17.531 17.579-46.078 17.579-63.656 0z"/><path d="M121.781 34.64a23.09 23.09 0 00-4.828.516l-4.781-21.89c9.844-2.157 20.297-.985 29.531 3.609l-9.937 20.11c-3-1.548-6.422-2.344-9.985-2.344zM88.875 87.984c-3.938-4.218-6.938-9-8.953-14.062l20.859-8.297c1.031 2.625 2.578 5.016 4.5 7.078L88.875 87.984zM224.391 47.203v150.844a4.602 4.602 0 01-4.594 4.594h-96.469a4.602 4.602 0 01-4.594-4.594V47.203c0-2.531 2.063-4.64 4.594-4.64h96.422a4.622 4.622 0 014.641 4.64z"/><path d="M108.094 206.953h126.937a2.15 2.15 0 002.156-2.156 2.15 2.15 0 00-2.156-2.156H108.094a2.15 2.15 0 00-2.157 2.156 2.15 2.15 0 002.157 2.156zM224.391 47.156v11.25H118.734v-11.25c0-2.531 2.063-4.64 4.594-4.64h96.422c2.578.047 4.641 2.109 4.641 4.64z"/><path d="M171.562 198.656a4.301 4.301 0 01-4.312-4.312 4.301 4.301 0 014.312-4.313 4.302 4.302 0 014.313 4.313c.047 2.39-1.922 4.312-4.313 4.312zm-40.64-146.531a1.78 1.78 0 111.781-1.781c-.047.984-.844 1.781-1.781 1.781zm5.578 0a1.78 1.78 0 01-1.781-1.781 1.78 1.78 0 113.562 0 1.78 1.78 0 01-1.781 1.781zM222.75 58.406H120.375v126.985H222.75V58.406z"/><path d="M138.699 100.969V85.922h-33.891v15.047h33.891zm20.681 38.289v-15.047h-33.89v15.047h33.89zm-10.317-19.121V105.09h-33.89v15.047h33.89zM216.891 63.75h-91.407v17.11h91.407V63.75z"/><path d="M214.125 66.188h-12.141v12.14h12.141v-12.14zM157.687 66.938H131.39v2.343h26.297v-2.344zm0 4.172H131.39v2.343h26.297V71.11zm-8.578 4.171H131.39v2.344h17.719v-2.344z"/><path opacity=".5" d="M234.14 136.828h-74.765v35.11h74.765v-35.11z"/><path d="M196.172 148.969h-29.344v2.953h29.344v-2.953zm-6.985 5.25h-22.359v2.953h22.359v-2.953zm-7.265 5.297h-15.094v2.953h15.094v-2.953zm10.875 0h-9v2.953h9v-2.953zm-5.578 5.25h-20.391v2.953h20.391v-2.953zM152.484 144.891h-27v27h27v-27z"/><path d="M144.955 164.447a8.438 8.438 0 10-11.934-11.933 8.438 8.438 0 0011.934 11.933z"/><path d="M145.406 158.484a6.391 6.391 0 01-2.625 5.157c-.468.328-.984.656-1.547.843a4.568 4.568 0 01-.75.235c-.14.047-.328.047-.468.094-.328.046-.657.093-.985.093a6.563 6.563 0 01-1.922-.281c-2.625-.797-4.5-3.234-4.5-6.141 0-.984.235-1.968.657-2.812.515-1.031 1.265-1.922 2.203-2.531l.703-.422a5.113 5.113 0 011.687-.563c.375-.093.797-.094 1.172-.094 2.719 0 5.063 1.688 5.953 4.079.235.75.422 1.5.422 2.343z"/><path d="M138.984 159.234a.74.74 0 01-.75-.75v-4.125a.74.74 0 01.75-.75.74.74 0 01.75.75v4.125a.74.74 0 01-.75.75z"/><path d="M138.984 159.234c-.234 0-.468-.14-.609-.328-.234-.328-.094-.797.234-1.031l2.11-1.359c.328-.235.797-.094 1.031.234.234.328.094.797-.234 1.031l-2.11 1.36c-.14.046-.281.093-.422.093zM216.89 85.922h-53.343v53.344h53.343V85.922z"/><path d="M190.219 114.984a6.802 6.802 0 01-6.797-6.797v-4.078a6.802 6.802 0 016.797-6.796 6.8 6.8 0 016.796 6.796v4.078a6.801 6.801 0 01-6.796 6.797z"/><path d="M190.219 111.516c-6.422 0-11.907 3.75-14.485 9.187-1.5 3.188.797 6.844 4.313 6.844h20.39c3.516 0 5.813-3.656 4.313-6.844a16.06 16.06 0 00-14.531-9.187zM216.88 178.057v-4.36h-91.406v4.36h91.406zM223.734 84.188V68.296a2.08 2.08 0 012.063 2.062v11.813c0 1.125-.938 2.016-2.063 2.016zm0 17.765v-15.89a2.08 2.08 0 012.063 2.062v11.813c0 1.078-.938 2.015-2.063 2.015z"/><path opacity=".3" d="M179.765 58.406l-59.39 59.391V85.875l27.469-27.469h31.921zm22.219 0l-81.609 81.61v-15.938l65.672-65.672h15.937z"/><path opacity=".3" d="M141.562 149.813V163.5c0 .562-.375 1.078-.89 1.219v37.875h-17.297a4.602 4.602 0 01-4.594-4.594v-76.078h18.703a3.191 3.191 0 013.188 3.187v23.485c.515.187.89.656.89 1.219z"/><path d="M128.391 115.594v104.719a3.19 3.19 0 01-3.188 3.187H70.219a3.19 3.19 0 01-3.188-3.187V115.594a3.191 3.191 0 013.188-3.188h54.937c1.782 0 3.235 1.407 3.235 3.188z"/><path d="M128.391 115.594v7.828h-61.36v-7.828a3.191 3.191 0 013.188-3.188h54.984c1.735 0 3.188 1.453 3.188 3.188z"/><path d="M97.688 220.781a3.02 3.02 0 01-3-3c0-1.64 1.359-3 3-3 1.64 0 3 1.36 3 3 0 1.641-1.313 3-3 3zm-11.11-101.765a1.241 1.241 0 01-1.219-1.219c0-.656.563-1.219 1.22-1.219.655 0 1.218.563 1.218 1.219 0 .703-.516 1.219-1.219 1.219zm17.297-.75h-12.14a.47.47 0 01-.47-.469c0-.281.188-.469.47-.469h12.14a.47.47 0 01.469.469.47.47 0 01-.469.469zM127.219 123.422H68.156v88.172h59.063v-88.172z"/><path d="M83.625 170.297H72.891v3.375h10.734v-3.375zm27.328 0h-10.734v3.375h10.734v-3.375zm-13.687 0H86.53v3.375h10.735v-3.375zm25.312 6.141H79.359v11.859h43.219v-11.859z"/><path d="M120.656 178.125h-8.437v8.437h8.437v-8.437zM95.39 178.641H77.11v1.64h18.28v-1.64zm0 2.906H77.11v1.641h18.28v-1.641zm-6 2.906H77.11v1.641h12.28v-1.641zM104.578 191.25H72.984v14.812h31.594V191.25z"/><path d="M93.234 193.5H77.11v1.641h16.125V193.5zm-3.844 2.859H77.11V198h12.28v-1.641zm-3.984 2.907H77.11v1.64h8.297v-1.64zM91.36 199.266h-4.923v1.64h4.922v-1.64zM88.313 202.172H77.108v1.64h11.204v-1.64z"/><path opacity=".5" d="M111 128.906H64.5v37.922H111v-37.922z"/><path d="M92.016 159.891c6.575 0 11.906-5.331 11.906-11.907 0-6.575-5.33-11.906-11.906-11.906-6.576 0-11.907 5.331-11.907 11.906 0 6.576 5.331 11.907 11.907 11.907z"/><path d="M101.016 147.984c0 3-1.454 5.625-3.657 7.266a8.99 8.99 0 01-2.203 1.172c-.328.141-.703.234-1.078.328-.234.047-.469.094-.656.141-.469.093-.938.093-1.406.093a8.4 8.4 0 01-2.672-.421c-3.657-1.125-6.328-4.594-6.328-8.625 0-1.407.328-2.719.89-3.938a8.987 8.987 0 013.14-3.609 5.3 5.3 0 01.985-.563 8.676 8.676 0 012.344-.797 9.77 9.77 0 011.64-.14c3.844 0 7.126 2.39 8.391 5.765a9.088 9.088 0 01.61 3.328z"/><path d="M92.016 149.063a1.04 1.04 0 01-1.032-1.032v-5.765a1.04 1.04 0 011.032-1.032 1.04 1.04 0 011.03 1.032v5.765a1.04 1.04 0 01-1.03 1.032z"/><path d="M92.016 149.063c-.329 0-.704-.188-.891-.469-.328-.469-.14-1.125.328-1.453l3-1.875c.469-.328 1.125-.141 1.453.328.328.469.14 1.125-.328 1.453l-3 1.875a1.245 1.245 0 01-.563.141z"/><path opacity=".3" d="M109.406 123.422l-41.25 41.203V142.5l19.078-19.078h22.172zm15.422 0l-56.672 56.672v-11.11l45.563-45.562h11.109z"/><g opacity=".7"><path opacity=".7" d="M130.641 191.25h-22.875v22.875h22.875V191.25z"/><path opacity=".7" d="M119.156 203.719a2.921 2.921 0 01-2.906-2.907v-1.734a2.92 2.92 0 012.906-2.906 2.92 2.92 0 012.906 2.906v1.734c.047 1.594-1.265 2.907-2.906 2.907z"/><path opacity=".7" d="M119.156 202.219c-2.765 0-5.109 1.593-6.234 3.937-.656 1.36.328 2.953 1.828 2.953h8.719c1.5 0 2.484-1.593 1.828-2.953-.985-2.344-3.375-3.937-6.141-3.937z"/></g><path d="M121.969 128.906h-6.797v44.766h6.797v-44.766zM127.922 155.344v-16.36c.75 0 1.359.61 1.359 1.36v13.687c0 .703-.609 1.313-1.359 1.313z"/><path opacity=".3" d="M86.86 112.406l-5.626 16.5-12.937 37.922-1.266 3.75v-3.75h-2.484v-37.922h2.484v-13.312a3.191 3.191 0 013.188-3.188h16.64z"/><path d="M36.422 227.812h100.594a2.15 2.15 0 002.156-2.156 2.15 2.15 0 00-2.156-2.156H36.422a2.15 2.15 0 00-2.156 2.156c.046 1.219.984 2.156 2.156 2.156z"/></svg><svg viewBox="0 0 240 240" id="laptop" xmlns="http://www.w3.org/2000/svg"><path d="M13.293 180.964l83.6 48.583c1.772 1.033 4.626 1.033 6.398.016l127.028-73.348c1.771-1.018 1.771-2.675 0-3.708l-83.6-48.583c-1.756-1.017-4.61-1.017-6.382 0L13.31 177.256c-1.772 1.034-1.789 2.691-.017 3.708z"/><path d="M112.083 185.901c-.999.577-.993 1.517-.001 2.093l20.608 11.976c.992.577 2.615.584 3.614.007l40.609-23.446c.999-.577.993-1.517.001-2.093l-20.608-11.976c-.992-.577-2.615-.584-3.613-.007l-40.61 23.446z"/><path d="M11.98 179.126l.017 4.891c0 .656.443 1.328 1.313 1.837l83.6 48.583c1.771 1.017 4.626 1.017 6.398 0l127.027-73.332c.886-.509 1.329-1.181 1.329-1.871l-.017-4.873c0 .672-.442 1.345-1.328 1.853l-127.028 73.349c-1.772 1.017-4.626 1.017-6.398-.016l-83.6-48.583c-.886-.509-1.312-1.165-1.312-1.838zM140.09 7.189c1.77-1.022 3.209-.202 3.215 1.832l.227 89.37c.005 2.022-1.425 4.511-3.195 5.533L15.14 176.2c-1.77 1.022-3.21.189-3.215-1.833l-.227-89.37c-.005-2.033 1.425-4.51 3.195-5.533L140.09 7.19z"/><path d="M8.336 83.05l.23 89.366c0 1.001.36 1.722.935 2.051l3.358 1.952c-.575-.328-.935-1.05-.935-2.05l-.23-89.366c0-2.035 1.427-4.512 3.199-5.546L140.09 7.19c.886-.508 1.69-.558 2.281-.23l-3.358-1.952c-.574-.328-1.394-.28-2.28.23L11.535 77.52c-1.772 1.017-3.199 3.495-3.199 5.529z"/><path d="M16.217 83.908l.218 86.336L139.013 99.48l-.218-86.336L16.217 83.908z"/><path d="M16.217 83.908l.037 14.48 122.578-70.763-.037-14.481L16.217 83.908z"/><path d="M118.584 30.276c1.182-.682 2.143-.158 2.146 1.2.004 1.358-.95 3.011-2.132 3.693-1.161.67-2.122.123-2.126-1.234-.004-1.358.951-2.988 2.112-3.659zm6.826-3.941c1.161-.67 2.122-.146 2.126 1.212.003 1.358-.951 3.011-2.112 3.682-1.182.682-2.143.134-2.147-1.223-.004-1.358.951-2.988 2.133-3.67zm6.805-3.928c1.182-.683 2.142-.159 2.146 1.2.004 1.357-.95 3.01-2.132 3.693-1.182.682-2.143.134-2.146-1.224-.004-1.357.95-2.987 2.132-3.67zM38.93 174.967l-8.024 4.663-3.457-1.996 8.024-4.663 3.457 1.996zm86.339-50.175l-8.035 4.669-3.457-1.995 8.035-4.67 3.457 1.996zm21.585-12.544l-8.036 4.67-3.456-1.996 8.035-4.67 3.457 1.996zm-14.402 29.2l-8.024 4.664-7.135-4.12 8.024-4.663 7.135 4.119zm39.577-2.156l-8.035 4.67-7.146-4.126 8.035-4.669 7.146 4.125zm10.798-6.274l-8.035 4.669-16.142-9.32 8.035-4.669 16.142 9.32zm-26.977-15.576l-14.816 8.61-7.146-4.126 14.816-8.61 7.146 4.126zm-17.567 10.209l-8.035 4.669-7.146-4.125 8.035-4.67 7.146 4.126zm26.552-5.021l-18.833 10.944-7.135-4.119L157.7 118.51l7.135 4.12zm-21.585 12.543l-8.035 4.67-7.135-4.12 8.035-4.669 7.135 4.119zm8.996 5.194l-8.035 4.67-7.146-4.126 8.035-4.67 7.146 4.126zm-24.761-6.441l-8.035 4.67-7.146-4.126 8.035-4.67 7.146 4.126zm-13.014-2.859l-8.024 4.663-3.457-1.996 8.024-4.663 3.457 1.996zm-10.787 6.269l-8.035 4.669-3.457-1.996 8.036-4.669 3.456 1.996zm5.393 28.119l-8.035 4.669-7.146-4.126 8.035-4.669 7.146 4.126zM92.886 143.61l-8.024 4.664-3.456-1.996 8.024-4.663 3.456 1.995zm13.014 2.86l-8.024 4.663-7.146-4.126 8.024-4.663 7.146 4.126zm-23.8 3.409l-8.036 4.67-3.456-1.996 8.035-4.67 3.456 1.996zm13.013 2.859l-8.035 4.67-7.146-4.126 8.035-4.669 7.146 4.125zm15.754 1.254l-8.024 4.663-7.135-4.119 8.025-4.663 7.134 4.119zm-39.555 2.156l-8.035 4.669-3.456-1.995 8.035-4.67 3.456 1.996zm13.014 2.859l-8.035 4.669-7.146-4.125 8.035-4.67 7.146 4.126zm35.538.179l-8.024 4.663-7.146-4.126 8.024-4.663 7.146 4.126zm-19.783 1.075l-8.035 4.669-7.135-4.119 8.035-4.67 7.135 4.12zm-39.566 2.162l-8.035 4.669-3.457-1.995 8.035-4.67 3.457 1.996zm13.013 2.859l-8.035 4.67-7.146-4.126 8.035-4.67 7.146 4.126zm15.766 1.247l-8.035 4.67-7.135-4.12 8.035-4.669 7.135 4.119zm-26.552 5.022l-8.035 4.669-7.147-4.125 8.036-4.67 7.146 4.126zm35.548.172l-8.035 4.67-7.146-4.126 8.035-4.669 7.146 4.125zm-19.794 1.081l-8.035 4.67-7.135-4.119 8.035-4.67 7.135 4.119zm8.996 5.194l-8.035 4.67-7.146-4.126 8.035-4.669 7.146 4.125zm41.83-13.887l-40.869 23.751-7.146-4.126 40.869-23.751 7.146 4.126zm-52.617 20.156l-8.035 4.669-7.146-4.125 8.035-4.67 7.146 4.126zm-8.996-5.194l-18.822 10.938-7.135-4.119 18.822-10.938 7.135 4.119zm-1.802 11.469l-8.024 4.663-7.146-4.126 8.024-4.663 7.146 4.126zm19.794-1.081L66.88 200.399l-7.146-4.126 18.822-10.938 7.146 4.126zm-35.973-20.769l-8.035 4.669-3.457-1.996 8.035-4.669 3.457 1.996zm86.328-50.169l-8.035 4.67-3.457-1.996 8.035-4.669 3.457 1.995zm-19.358 21.672l-8.035 4.669-7.146-4.125 8.035-4.67 7.146 4.126zm22.96 17.91l-8.035 4.669-7.146-4.125 8.035-4.67 7.146 4.126zm-8.996-5.194l-8.035 4.669-7.146-4.125 8.035-4.67 7.146 4.126zm-8.996-5.194l-8.036 4.669-7.134-4.119 8.035-4.669 7.135 4.119zm39.577-2.156l-8.035 4.67-7.146-4.126 8.035-4.67 7.146 4.126zm-10.798 6.275l-8.025 4.663-7.145-4.125 8.024-4.663 7.146 4.125zm-98.501 25.99l-12.042 6.998-7.146-4.126 12.042-6.998 7.145 4.126zM27.611 106.728c1.556-.898 2.475-.701 3.132-.106l-.883 1.432c-.565-.569-1.29-.523-2.175-.012-1.803 1.041-2.946 3.305-2.94 5.482.007 2.169 1.159 3.126 2.961 2.085.886-.511 1.609-1.327 2.168-2.528l.889.418c-.652 1.36-1.567 2.615-3.123 3.513-2.541 1.467-4.257.207-4.265-2.696-.009-2.903 1.695-6.12 4.236-7.588zm5.73 4.714c.524-.302.972-.047.974.555.002.611-.444 1.373-.968 1.676-.53.306-.971.055-.973-.555-.002-.602.436-1.369.967-1.676zm.665-6.398c.38-.654.38-1.361.003-1.581-.379-.22-.993.131-1.373.784-.38.654-.38 1.361-.002 1.581.378.22.993-.131 1.372-.784zm2.282-7.226l4.223 11.923-1.04.6-4.223-11.922 1.04-.6zm8.229-6.125l7.372 4.21-7.324 12.694-1.182-.674 6.165-10.669-6.205-3.526 1.174-2.035zM60.12 95.92l.01 3.168-7.71 4.451-.01-3.168 7.71-4.452z"/></svg><svg viewBox="0 0 240 240" id="media" xmlns="http://www.w3.org/2000/svg"><path d="M89.86 47.484C85.171 49.454 67.03 57 56.905 76.547c-2.156 4.172-12.28 23.719-4.828 40.969 9.89 22.875 39.985 17.296 53.813 38.812 11.859 18.516-12.75 36.703-2.157 58.734 5.532 11.485 18.282 21.094 30.047 21.985 36.797 2.765 102.891-76.5 76.032-138.703-19.594-45.188-82.032-66.656-119.953-50.86z"/><path d="M164.859 83.016L97.125 57.89c-2.063-.75-4.313.28-5.063 2.343l-45.75 123.141c-.75 2.062.282 4.312 2.344 5.062l67.735 25.125c2.062.75 4.312-.281 5.062-2.343l45.75-123.188c.75-2.015-.281-4.265-2.344-5.015z"/><path opacity=".09" d="M124.266 146.109c-1.688 0-3.422-.047-5.203-.14-26.297-1.453-47.766-13.172-57.422-31.313-15.422-28.969-.282-69.328 22.922-82.031 11.718-6.469 21.89-6.281 28.359-4.969C123.984 29.86 132.141 34.97 135.891 42c4.031 7.547 1.875 14.625-.422 22.078-2.063 6.703-4.172 13.594-1.641 21.047 2.25 6.656 8.11 8.719 14.344 10.922 6.328 2.25 12.891 4.547 16.406 11.812 3.703 7.688 3.235 18.188-1.031 24.516-5.813 8.437-21.188 13.734-39.281 13.734zm-18.657-118.64c-5.765 0-12.937 1.312-20.765 5.625-22.969 12.61-37.969 52.64-22.688 81.328 9.563 18 30.89 29.578 57 31.031 20.063 1.125 37.735-4.266 43.969-13.359 4.172-6.141 4.641-16.453.984-23.953-3.421-7.079-9.843-9.329-16.078-11.532-6.328-2.25-12.328-4.36-14.672-11.25-2.578-7.64-.421-14.625 1.641-21.422 2.25-7.359 4.406-14.343.469-21.703-3.656-6.89-11.719-11.906-22.594-14.062a37.072 37.072 0 00-7.266-.703z"/><path opacity=".2" d="M148.453 76.922l-7.5 5.016-65.484 43.968-10.36 6.985 14.25-38.485 10.407-6.984 23.484-15.797 7.5-5.016 27.703 10.313zm14.906 5.531l-7.5 5.016-88.078 59.156-10.406 6.938 5.063-13.547 10.359-6.938v-.047l73.312-49.172 7.5-5.062 9.75 3.656z"/><path d="M164.859 83.016l-1.5-.563-9.75-3.61-5.156-1.921-27.703-10.266-23.625-8.765a3.942 3.942 0 00-5.063 2.343L79.36 94.454l-14.297 38.483-2.671 7.172-5.016 13.547-11.063 29.813c-.14.375-.187.75-.234 1.125-.14 1.687.89 3.328 2.578 3.937l12.563 4.688 9.468 3.515 25.032 9.282 9.14 3.375 11.532 4.265c2.015.75 4.312-.281 5.062-2.297L166.36 90.422l.844-2.25c.75-2.156-.281-4.406-2.344-5.156zm-6.422 7.64l-.937 2.578-38.672 104.203c-.422 1.079-1.641 1.688-2.766 1.266l-8.484-3.141-10.266-3.796-21.187-7.875-9.703-3.61-7.735-2.859c-.843-.328-1.359-1.078-1.359-1.922 0-.281 0-.563.14-.844l10.407-27.984 5.016-13.547 2.671-7.172L89.86 87.469l7.266-19.547c.422-1.078 1.64-1.688 2.719-1.266l13.5 5.016 27.703 10.266 5.156 1.921 9.75 3.61 1.266.469c1.078.421 1.64 1.64 1.218 2.718z"/><path d="M80.625 195.937c-1.922-.703-2.906-2.859-2.203-4.781.703-1.922 2.86-2.906 4.781-2.203 1.922.703 2.906 2.859 2.203 4.781-.75 1.969-2.906 2.907-4.781 2.203z"/><path opacity=".1" d="M125.906 10.36L31.359 41.671a4.34 4.34 0 00-2.765 5.484l9.187 27.656a4.34 4.34 0 005.485 2.766l9.328-3.094 4.547-1.5c1.172.75 4.078 2.72 5.25 3.422 1.078.61 2.484.14 3-.984.562-1.266 1.734-4.547 2.203-5.86l22.969-7.64 47.249-15.656a4.34 4.34 0 002.766-5.485l-9.187-27.656c-.75-2.297-3.188-3.516-5.485-2.766z"/><path d="M125.906 3.047L24.469 36.657c-2.438.796-3.75 3.468-2.953 5.906l9.843 29.671c.797 2.438 3.469 3.75 5.907 2.954l9.984-3.329 4.875-1.593c1.219.843 4.36 2.906 5.625 3.656 1.125.656 2.672.14 3.234-1.078.563-1.36 1.875-4.922 2.344-6.281l24.656-8.157 50.719-16.828c2.438-.797 3.75-3.469 2.953-5.906L131.812 6c-.796-2.438-3.421-3.75-5.906-2.953z"/><path d="M50.156 50.578a5.148 5.148 0 00.422-4.172l-.797-2.39c-.89-2.672-3.703-4.313-6.422-3.516-2.812.844-4.312 3.797-3.422 6.563l.844 2.624c.469 1.454 1.547 2.532 2.813 3.094-2.907 2.203-4.594 5.719-4.36 9.422.094 1.453 1.547 2.344 2.906 1.922l15.844-5.25c1.36-.469 1.969-2.063 1.219-3.281-1.969-3.188-5.39-5.016-9.047-5.016zm38.156-25.031L68.11 32.25a3.209 3.209 0 00-2.015 3.984l3.28 9.938a3.209 3.209 0 003.985 2.016l1.969-.657s3.75 2.531 5.016 3.281c.937.516 2.203.141 2.625-.89.609-1.36 2.109-5.625 2.109-5.625l8.484-2.813a3.209 3.209 0 002.016-3.984l-3.281-9.938c-.563-1.687-2.344-2.578-3.985-2.015z"/><path d="M71.625 36.844c-.656.14-1.36-.188-1.547-.844-.234-.703.14-1.453.844-1.64l16.406-5.438c.656-.235 1.453.14 1.64.844.235.703-.14 1.453-.843 1.64l-16.406 5.438h-.094zm1.406 4.312c-.656.14-1.36-.187-1.547-.844-.234-.703.14-1.453.844-1.64l16.406-5.438c.656-.234 1.453.14 1.64.844.235.703-.14 1.453-.843 1.64l-16.406 5.438c0-.047-.047 0-.094 0zm1.453 4.266c-.656.14-1.359-.188-1.546-.844-.235-.703.14-1.453.843-1.64l7.406-2.438c.657-.234 1.407.14 1.641.844.234.703-.14 1.453-.844 1.64l-7.406 2.438h-.094zM130.406 30.234a9.586 9.586 0 00-3.562-4.828l-.703-2.156a7.736 7.736 0 00-8.438-5.203l-.187-.61a1.33 1.33 0 00-1.688-.843 1.33 1.33 0 00-.844 1.687l.188.61c-3.234 1.734-4.828 5.578-3.656 9.187l.703 2.156a9.713 9.713 0 000 6l.328.938c.141.469.656.75 1.125.562l3.609-1.218c.047.28.188.562.516.656 1.5.515 3.187.515 4.828 0 1.641-.516 2.953-1.547 3.891-2.86.187-.28.187-.609.047-.843l3.609-1.22c.469-.14.75-.655.562-1.124l-.328-.89z"/><path d="M115.031 36.188c.703 2.109-.468 4.453-2.578 5.156-2.109.703-4.453-.469-5.156-2.578-.703-2.11.469-4.453 2.578-5.157 2.156-.703 4.453.422 5.156 2.578z"/><path opacity=".1" d="M227.906 90l-25.922-3.094c-1.125-.14-2.109.656-2.25 1.781l-3.093 25.922c-.141 1.125.656 2.11 1.781 2.25l25.922 3.094c1.125.141 2.109-.656 2.25-1.781l3.093-25.922c.141-1.078-.656-2.11-1.781-2.25z"/><path d="M230.953 116.344l-30.281-3.61a.88.88 0 01-.797-1.031l3.609-30.281a.88.88 0 011.031-.797l30.282 3.61a.88.88 0 01.797 1.03l-3.61 30.282c-.047.469-.515.844-1.031.797z"/><path d="M203.109 109.406l3-25.078a.604.604 0 01.61-.516l25.078 3a.603.603 0 01.515.61l-3 25.078a.603.603 0 01-.609.516l-25.078-3c-.328 0-.516-.282-.516-.61z"/><path d="M218.344 100.594l-2.907 2.297c-.515.422-1.312.328-1.734-.188-.422-.515-1.172-.609-1.734-.187l-4.266 3.375c-.844.656-.469 2.062.609 2.203l.516.047 10.078 1.218 5.672.657c1.078.14 1.781-1.125 1.125-1.969l-5.625-7.266c-.422-.515-1.219-.609-1.734-.187zm-5.204-4.875a2.155 2.155 0 01-2.39 1.875 2.156 2.156 0 01-1.875-2.39 2.155 2.155 0 012.39-1.876 2.156 2.156 0 011.875 2.39z"/><path opacity=".1" d="M64.031 163.547a5.935 5.935 0 00-7.453-3.891l-38.25 12.094a5.935 5.935 0 00-3.89 7.453l7.874 24.891a5.935 5.935 0 007.454 3.89l3.75-1.171s6.984 4.828 9.422 6.281c1.734 1.031 4.124.281 4.968-1.594 1.172-2.578 4.078-10.547 4.078-10.547l16.032-5.062a5.935 5.935 0 003.89-7.453l-7.875-24.891z"/><path d="M49.969 153.984L8.953 166.969c-3.375 1.078-5.203 4.64-4.172 8.015l8.438 26.719c1.078 3.375 4.64 5.203 8.015 4.172l3.985-1.266s7.5 5.204 10.078 6.75c1.875 1.125 4.453.282 5.344-1.687C41.906 206.906 45 198.328 45 198.328l17.203-5.437c3.375-1.078 5.203-4.641 4.172-8.016l-8.438-26.719c-.984-3.375-4.593-5.25-7.968-4.172z"/><path d="M50.11 167.813l-33.282 10.546c-1.078.329-2.25-.234-2.578-1.359-.328-1.078.281-2.25 1.36-2.578l33.28-10.547c1.079-.328 2.25.234 2.579 1.359.328 1.079-.282 2.25-1.36 2.579zm2.952 9.421l-33.28 10.547c-1.079.328-2.25-.234-2.579-1.359-.328-1.078.281-2.25 1.36-2.578l33.28-10.547c1.079-.328 2.25.234 2.579 1.359.328 1.032-.281 2.203-1.36 2.578zm-15.281 15.141l-15 4.734c-1.078.328-2.25-.281-2.578-1.359-.328-1.078.281-2.25 1.36-2.578l15-4.735c1.078-.328 2.25.282 2.578 1.36.328 1.078-.282 2.25-1.36 2.578z"/><path opacity=".1" d="M133.828 107.438c-.562-2.391-3.75-2.907-5.062-.797l-5.25 8.484-2.953-12.328c-.61-2.484-3.094-4.031-5.579-3.422l-33.89 8.063c-2.485.609-4.031 3.093-3.422 5.578l8.062 33.89c.61 2.485 3.094 4.032 5.579 3.422l33.89-8.062c2.485-.61 4.031-3.094 3.422-5.578l-2.953-12.329 8.484 5.25c2.11 1.313 4.735-.609 4.125-3l-4.453-19.171z"/><path d="M132.797 97.406l-5.625 9.141-3.141-13.219a5.025 5.025 0 00-6-3.703l-36.375 8.672a5.025 5.025 0 00-3.703 6l8.672 36.375a5.025 5.025 0 006 3.703L129 135.703a5.024 5.024 0 003.703-6l-3.14-13.219 9.14 5.625c2.25 1.407 5.063-.656 4.453-3.234l-4.921-20.578c-.61-2.578-4.032-3.14-5.438-.89z"/><path d="M98.86 107.203l13.312 8.156-8.203 13.313M157.886 159.938l-55.315 8.811 4.977 31.245 55.315-8.811-4.977-31.245z"/><path d="M132.703 180l25.172-20.016-55.312 8.813L132.703 180zM169.125 213.609h31.641c.937 0 1.734-.797 1.734-1.734 0-.937-.797-1.734-1.734-1.734h-31.641c-.938 0-1.734.797-1.734 1.734 0 .984.75 1.734 1.734 1.734zM179.578 206.25l-1.5-9.141 4.125-1.265.656 9.75-3.281.656z"/><path d="M183 204.609c.281.047.515.141.75.328 1.453 1.219 5.906 3.375 8.156 3.704 2.438.375 2.578 1.546-.891 1.546-3.421 0-5.953-.328-7.453-.281-1.547.047-1.125.281-4.875.281-2.906 0-1.968-3.703-.937-5.39.328-.516.75-.797 1.359-.75l3.891.562zM166.312 197.719l5.719-7.266 3.703 2.203-6.703 7.032-2.719-1.969z"/><path d="M169.875 199.125c.14.234.281.469.281.75.094 1.875 1.547 6.75 3.281 8.297 1.735 1.594.61 1.969-2.203.656-3.094-1.453-3.797-4.594-4.875-5.672-1.078-1.078-.984-.656-3.515-3.422-1.969-2.109 1.359-3.937 3.328-4.359.609-.141 1.078 0 1.453.516l2.25 3.234zM163.734 43.219s-1.125 7.5 1.032 10.968a765.674 765.674 0 002.484 3.985"/><path d="M169.266 61.5a3.814 3.814 0 01-1.969.563c-1.313 0-2.625-.657-3.328-1.922-.047-.047-.422-.703-2.438-3.89-1.406-2.25-1.875-5.298-1.922-7.97-.093-2.625.188-4.875.329-5.625.328-2.11 2.296-3.61 4.453-3.281 2.109.328 3.609 2.297 3.281 4.453-.188 1.125-.234 2.438-.234 3.656 0 1.266.093 2.485.281 3.375.094.516.234.985.422 1.266 2.203 3.516 2.531 4.078 2.531 4.078a3.857 3.857 0 01-1.406 5.297z"/><path d="M154.875 104.437c.797-11.203-2.953-39-4.875-50.062-.281-1.688.984-3.234 2.719-3.234h23.015c1.219 0 2.344.843 2.672 2.015 2.625 10.032 4.313 51.235 4.313 51.235h-27.844v.046z"/><path d="M192.891 81.14c-.375-2.109-2.954-7.5-5.813-13.124-3.047-5.954-6.469-12.235-8.062-15.047-.891-1.594-2.907-2.157-4.5-1.313-1.594.89-2.157 2.907-1.313 4.5a785.697 785.697 0 017.125 13.219c2.484 4.781 4.875 7.688 5.859 10.031-1.781 1.547-6.234 1.688-9.75 1.453-.984-.093-4.734-.375-7.218 1.922-.985.89-2.11 2.531-2.016 5.11.094 1.78.328 2.484 1.922 3.28.656.329 1.5.376 2.203.329 1.828-.234 1.969-1.219 1.969-3.328 0-1.5.797-3 .797-3s5.343 1.312 9.797 1.875c4.453.562 6.281-.328 7.921-2.156.938-1.079 1.313-2.438 1.079-3.75zM156.094 122.531s-3.375-6.187-1.219-18.093h27.797s.375 9.046-.234 18.093h-26.344z"/><path d="M187.031 68.016l-3.234.656-3.469.703a474.487 474.487 0 00-7.125-13.219c-.891-1.593-.281-3.61 1.312-4.5 1.594-.89 3.61-.281 4.5 1.313 1.547 2.812 4.969 9.093 8.016 15.047zM155.766 53.766c-.422-1.782-2.25-2.86-3.985-2.391-7.969 1.969-13.5 3.75-17.344 5.39-8.859 3.75-8.765 6.516-8.765 7.922.047 1.594.375 4.735 19.453 11.672 0 .563-.609 2.72-.984 3.422-.891 1.594.046 3.14.984 4.688.328.515 1.078 1.172 1.969 1.172 1.172 0 2.625-1.5 2.812-2.72.703-4.452.61-7.077.375-7.593 0-.047-.047-.094-.047-.14-.093-.141-.14-.282-.234-.422-.047-.094-.141-.141-.188-.235-.093-.094-.14-.187-.234-.234a2.58 2.58 0 00-.422-.328c-.047 0-.047-.047-.094-.047-.234-.14-.468-.281-.703-.375-6.468-2.672-12.515-6.984-15.187-8.86a29.045 29.045 0 013.89-1.78c4.079-1.641 10.079-3.563 16.219-5.063 1.828-.516 2.906-2.297 2.485-4.078z"/><path d="M187.547 66.563l-4.453.843-3.469.656-2.953.563c-3.797-7.453-4.688-9.14-4.828-11.672-.141-2.86.609-4.312 2.484-5.344 1.875-1.03 4.219-.375 5.25 1.5.094.141 4.125 5.907 7.969 13.453zM199.641 159.281c-.422 2.719-1.875 5.672-3.938 9.281-3.469 6-8.765 12.704-13.547 18.282-3.328 3.89-6.375 7.265-8.297 9.562-.843.985-1.5 1.781-1.875 2.297l-3.937-5.062c1.453-2.063 2.812-4.829 4.5-7.407.047-.047.094-.14.14-.187 3.188-4.828 6.61-10.266 9.329-15.235.093-.187.187-.328.281-.515 2.906-5.25 5.062-9.891 5.484-12.61.75-4.828-6.515-19.921-13.687-33.234-.797-1.547-1.641-3.047-2.438-4.5a3.898 3.898 0 01-.468-1.594c-.188-2.437 1.593-5.25 3.796-6.468 2.672-1.5 6.141-2.25 7.641.421 3.047 5.532 18.844 35.11 17.016 46.969z"/><path d="M182.156 186.844c-3.328 3.89-6.375 7.265-8.297 9.562a798.137 798.137 0 01-.984-8.672c-.047-.562-.141-1.172-.188-1.734 3.188-4.828 6.61-10.266 9.328-15.234.188 4.921.188 10.687.141 16.078z"/><path d="M181.453 160.781c-1.359-11.109-10.687-40.969-12.141-44.25-1.218-2.812-7.968-3.422-10.781-2.156-2.812 1.219-4.078 4.5-2.859 7.312 3.75 8.532 14.39 31.36 15.469 39.422.609 4.828 1.453 14.532 2.953 22.828a2027.48 2027.48 0 002.953 15.469c.703 3.563.703 2.906.75 3.235l6.656-1.032s-1.406-27.703-3-40.828zM153.328 57.75c-6.141 1.5-12.141 3.422-16.219 5.063l-2.718-6.094c3.843-1.594 9.375-3.422 17.343-5.39 1.782-.423 3.563.655 3.985 2.39.468 1.828-.61 3.61-2.391 4.031z"/><path d="M151.828 51.234c2.109-.328 3.656.704 4.219 2.766.562 2.063-.844 3.656-2.719 4.734-2.25 1.313-3.047 1.594-12.562 4.875l-5.297-7.312c12.187-4.734 12.797-4.547 16.359-5.063zM167.672 50.86h-.516c-2.859 0-5.484-.938-7.547-2.579-.093-2.625.188-4.875.329-5.625.328-2.11 2.296-3.61 4.453-3.281 2.109.328 3.609 2.297 3.281 4.453-.188 1.125-.234 2.438-.234 3.656-.094 1.22 0 2.438.234 3.375z"/><path d="M178.687 36.984c-1.546 7.172-5.531 12.422-12.421 12.422-6.844 0-11.157-5.203-12.422-12.422-1.125-6.75 5.578-13.359 12.422-13.359 6.937-.047 13.875 6.656 12.421 13.36zM179.625 202.687l-.047-.187c-1.875-11.625-4.734-29.156-6.141-40.219-1.031-8.062-11.015-31.969-14.765-40.5-.047-.047-.047-.14-.047-.187 0-.047 0-.047-.047-.094-.609-1.641-2.437-7.734-.703-17.344l.562.094c-1.734 9.469.094 15.422.657 17.062 0 .047.047.094.047.141 0 .047 0 .094.046.141 3.75 8.531 13.735 32.531 14.766 40.64 1.453 11.016 4.266 28.594 6.141 40.219l.047.188-.516.046zM170.719 51.188c0 1.687-.657 4.5-5.063 4.5-3.187 0-7.219-1.36-8.719-3.938l-.328-.563h14.11z"/><path d="M157.922 51.188c1.172 2.062 4.687 3.374 7.734 3.374 3.047 0 3.938-1.5 3.938-3.374h-11.672zM174.609 85.828c0-.047.188-1.922-1.781-4.64l1.828-1.079c2.297 3.422 2.063 5.86 2.063 6l-2.11-.28z"/><path d="M173.203 80.156c1.031-.469 2.391-.234 3.094.516.656.75.375 1.781-.703 2.25-1.032.469-2.391.234-3.094-.516-.656-.797-.375-1.781.703-2.25zM178.406 27.797c-3.75-6.047-12.984-6.516-14.765-6.422-.938.047-3 .61-3.891 2.016-.047-.985 0-1.875 0-1.875-.797.984-.937 1.828-.797 2.484a10.088 10.088 0 01-.937-1.547c-.141 1.031.14 1.64.562 1.969-2.531.61-5.765 4.172-4.64 11.484.468 3.188 7.687.75 9.703-2.437 1.359 2.203 4.078 2.672 4.078 2.672-.938-.938-1.781-2.344-2.438-3.75 3.844 2.343 8.953 4.875 9.563 6.422 0 0 1.125-2.485.281-4.079 0 0 3.047.75 3.422 3.797-.047-.093 3.844-4.265-.141-10.734zM169.43 104.141l-.555.09 3.035 18.787.555-.089-3.035-18.788z"/><path d="M171.609 119.438l-.094-.563s1.172-.188 1.782-1.078c.375-.516.468-1.172.375-1.922l-1.922-11.906.562-.094 1.922 11.906c.141.938 0 1.735-.469 2.344-.75 1.125-2.109 1.313-2.156 1.313zM153.469 36.234c-.563 1.22-.469 2.532.047 3.657.609 1.312 2.531 1.218 3.093-.094l1.594-3.563c.609-1.312-.609-2.765-2.016-2.39-1.171.375-2.203 1.218-2.718 2.39z"/><defs><linearGradient id="ca" x1="224.628" y1="216.258" x2="-13.186" y2="-2.209" gradientUnits="userSpaceOnUse"><stop stop-color="#6FC7DA"/><stop offset=".369" stop-color="#0D71B9"/><stop offset=".761" stop-color="#9E1460"/><stop offset="1" stop-color="#E7267A"/></linearGradient><linearGradient id="cb" x1="124.597" y1="84.744" x2="21.488" y2="-24.62" gradientUnits="userSpaceOnUse"><stop stop-color="#6FC7DA"/><stop offset="1" stop-color="#9E1460"/></linearGradient><linearGradient id="cc" x1="75.54" y1="186.12" x2="16.879" y2="179.704" gradientUnits="userSpaceOnUse"><stop stop-color="#6FC7DA"/><stop offset=".693" stop-color="#9E1460"/><stop offset="1" stop-color="#E7267A"/></linearGradient></defs></svg></svg>